<?xml version="1.0" standalone="no"?>
<!DOCTYPE svg PUBLIC "-//W3C//DTD SVG 20010904//EN"
 "http://www.w3.org/TR/2001/REC-SVG-20010904/DTD/svg10.dtd">
<svg version="1.0" xmlns="http://www.w3.org/2000/svg"
 width="1040.000000pt" height="1040.000000pt" viewBox="0 0 1040.000000 1040.000000"
 preserveAspectRatio="xMidYMid meet">
<metadata>
Created by potrace 1.11, written by Peter Selinger 2001-2013
</metadata>
<g transform="translate(0.000000,1040.000000) scale(0.100000,-0.100000)"
fill="#000000" stroke="none">
<path d="M6353 10377 c-13 -12 -33 -32 -45 -45 -25 -25 -88 -88 -101 -100 -52
-49 -207 -214 -216 -230 -14 -27 -14 -62 0 -62 6 0 30 -20 53 -45 24 -25 48
-45 54 -45 7 0 12 -4 12 -10 0 -10 50 -61 94 -95 14 -11 25 -26 26 -32 0 -7 4
-13 9 -13 5 0 13 -9 16 -20 3 -11 12 -20 20 -20 7 0 15 -7 19 -15 3 -8 12 -15
21 -15 8 0 15 -4 15 -10 0 -5 11 -20 25 -34 14 -14 25 -30 25 -36 0 -5 9 -10
20 -10 13 0 20 -7 20 -20 0 -11 5 -20 10 -20 6 0 30 -19 55 -42 24 -24 50 -48
57 -54 7 -6 24 -25 38 -42 14 -18 28 -32 32 -32 8 0 58 -48 58 -57 0 -3 24
-27 53 -54 28 -26 55 -52 59 -56 8 -9 202 -203 218 -218 21 -20 50 -58 50 -67
0 -4 5 -8 10 -8 12 0 80 -63 80 -74 0 -4 10 -16 23 -27 l22 -18 -32 -1 c-18 0
-33 -4 -33 -10 0 -5 -18 -10 -39 -10 -22 0 -41 -5 -43 -11 -2 -6 -20 -11 -41
-11 -20 0 -37 -4 -37 -8 0 -8 -38 -23 -53 -21 -4 1 -24 -8 -44 -19 -21 -11
-48 -20 -60 -20 -13 0 -23 -4 -23 -10 0 -5 -9 -10 -20 -10 -11 0 -20 -3 -20
-8 0 -8 -61 -38 -73 -34 -4 1 -19 -9 -33 -23 -14 -14 -32 -25 -40 -25 -8 0
-30 -16 -50 -35 -19 -19 -40 -35 -47 -35 -7 0 -24 -13 -37 -30 -14 -16 -31
-29 -37 -30 -7 0 -13 -6 -13 -14 0 -8 -19 -29 -42 -48 -24 -18 -45 -36 -46
-41 -2 -4 -35 -40 -73 -79 -38 -39 -69 -77 -69 -85 0 -8 -13 -27 -28 -41 -15
-15 -36 -45 -46 -67 -11 -22 -27 -47 -38 -56 -10 -9 -18 -24 -18 -33 0 -9 -4
-16 -10 -16 -5 0 -10 -11 -10 -25 0 -14 -4 -25 -9 -25 -5 0 -11 -22 -15 -50
-4 -27 -11 -50 -16 -50 -6 0 -10 -11 -10 -25 0 -14 -4 -25 -10 -25 -5 0 -10
-13 -10 -29 0 -17 -4 -33 -10 -36 -5 -3 -10 -19 -10 -36 0 -16 -4 -29 -10 -29
-5 0 -10 -24 -10 -54 0 -35 -5 -56 -12 -58 -10 -4 -13 -66 -13 -268 0 -202 3
-264 13 -267 8 -3 12 -25 12 -64 0 -33 4 -59 10 -59 6 0 10 -13 10 -30 0 -16
4 -30 8 -30 4 0 13 -21 20 -47 8 -27 20 -63 28 -81 8 -18 14 -44 14 -57 0 -14
5 -25 10 -25 6 0 10 -7 10 -15 0 -8 5 -15 10 -15 6 0 10 -9 10 -20 0 -11 5
-20 10 -20 6 0 10 -7 10 -15 0 -8 4 -15 9 -15 5 0 14 -13 21 -30 7 -16 16 -30
21 -30 5 0 11 -11 15 -25 3 -14 10 -25 15 -25 5 0 9 -7 9 -16 0 -9 9 -18 20
-21 11 -3 20 -10 20 -15 0 -5 8 -17 17 -26 16 -16 15 -17 -9 -20 l-27 -3 0
-125 -1 -124 27 -1 c16 0 90 -1 166 -1 75 0 137 -3 137 -7 0 -17 39 -51 58
-51 11 0 29 -11 40 -25 11 -14 27 -25 36 -25 9 0 16 -4 16 -10 0 -5 9 -10 20
-10 11 0 20 -4 20 -10 0 -5 6 -10 14 -10 10 0 13 -16 14 -60 0 -51 -3 -60 -18
-60 -10 0 -20 7 -24 15 -3 8 -14 15 -25 15 -11 0 -21 4 -23 9 -1 4 -20 11 -42
15 -38 7 -39 7 -32 -21 3 -15 9 -68 12 -118 4 -49 12 -93 18 -97 8 -6 6 -11
-4 -18 -12 -8 -13 -13 -2 -30 14 -24 16 -136 2 -145 -5 -3 -10 -23 -10 -43 0
-49 -47 -192 -62 -192 -5 0 -8 -9 -8 -20 0 -11 -4 -20 -10 -20 -5 0 -10 -8
-10 -18 0 -10 -8 -27 -19 -38 -10 -11 -26 -37 -36 -57 -9 -20 -24 -39 -34 -42
-9 -3 -23 -15 -31 -27 -8 -11 -26 -31 -39 -42 -13 -12 -39 -36 -57 -54 -18
-17 -38 -32 -44 -32 -6 0 -22 -12 -37 -26 -29 -29 -70 -48 -95 -45 -10 1 -18
-3 -18 -8 0 -6 -6 -11 -14 -11 -8 0 -16 -5 -18 -10 -2 -6 -14 -12 -28 -13 -14
-1 -45 -12 -69 -24 -27 -13 -49 -19 -55 -13 -8 6 -11 260 -11 819 l0 811 -132
0 -133 0 -2 -706 -3 -706 -21 38 c-12 22 -78 140 -149 264 -167 294 -148 262
-297 525 -72 127 -146 256 -164 289 -39 66 -41 56 39 140 26 28 47 54 47 58 0
4 5 8 10 8 6 0 33 23 61 50 28 28 56 50 64 50 7 0 18 7 25 15 7 8 20 15 30 15
10 0 20 7 24 15 3 8 11 12 18 10 8 -3 23 4 35 15 12 11 35 20 52 20 16 0 31 4
33 10 2 5 26 12 53 16 28 3 52 10 53 15 2 5 50 9 107 9 73 0 105 4 108 13 4
10 6 10 6 0 1 -9 19 -13 55 -13 30 0 56 -5 58 -10 2 -6 23 -12 48 -13 42 -2
45 0 48 25 2 15 -8 47 -22 73 -14 25 -26 55 -26 65 0 11 -4 20 -10 20 -5 0
-10 6 -10 13 0 18 -24 67 -32 67 -5 0 -8 14 -8 30 0 17 -4 30 -9 30 -9 0 -14
21 -34 137 -7 39 -15 75 -19 79 -5 4 -8 45 -8 91 0 46 -4 83 -10 83 -12 0 -12
273 0 280 5 3 9 41 10 85 2 133 0 165 -10 165 -10 0 -54 35 -74 58 -6 7 -19
21 -28 30 -10 9 -18 22 -18 29 0 7 -6 13 -13 13 -15 0 -77 64 -77 79 0 6 -4
11 -10 11 -5 0 -19 8 -29 18 -11 9 -26 22 -33 28 -19 16 -58 67 -58 76 0 4 -8
8 -18 8 -10 0 -25 11 -32 25 -7 14 -19 25 -27 25 -7 0 -13 9 -13 20 0 11 -7
20 -15 20 -8 0 -15 3 -15 8 0 4 -13 16 -30 27 -16 11 -34 31 -40 45 -6 14 -25
36 -42 50 -18 14 -41 35 -52 47 -12 13 -30 33 -42 45 -11 13 -41 41 -67 63
-26 22 -47 46 -47 53 0 6 -7 12 -15 12 -8 0 -15 5 -15 10 0 6 -7 10 -15 10 -8
0 -15 7 -15 15 0 8 -7 15 -15 15 -8 0 -15 5 -15 12 0 13 -68 78 -81 78 -5 0
-9 7 -9 16 0 8 -13 20 -30 25 -16 6 -30 16 -30 23 0 6 -9 18 -20 26 -11 8 -20
20 -20 27 0 8 -12 13 -30 13 -30 0 -47 -9 -73 -38 -14 -15 -90 -92 -107 -107
-6 -5 -31 -30 -55 -55 -24 -25 -54 -55 -66 -66 -12 -12 -36 -37 -54 -55 -18
-19 -42 -41 -54 -49 -24 -17 -31 -90 -8 -90 7 0 23 -11 35 -25 12 -14 26 -25
32 -25 5 0 10 -9 10 -20 0 -11 6 -20 14 -20 8 0 18 -9 21 -20 3 -11 11 -20 17
-20 13 0 78 -67 78 -81 0 -5 5 -9 12 -9 12 0 78 -67 78 -80 0 -4 9 -10 20 -13
11 -3 20 -12 20 -21 0 -9 5 -16 11 -16 13 0 79 -67 79 -80 0 -6 5 -10 10 -10
6 0 51 -40 99 -90 49 -49 94 -90 100 -90 6 0 11 -4 11 -9 0 -13 63 -77 83 -84
9 -4 17 -13 17 -22 0 -8 6 -15 14 -15 8 0 20 -13 28 -30 7 -16 18 -30 24 -30
7 0 14 -7 18 -15 3 -8 12 -15 21 -15 8 0 15 -4 15 -10 0 -12 79 -90 91 -90 5
0 9 -5 9 -10 0 -6 11 -22 25 -36 14 -14 25 -29 25 -34 0 -6 5 -10 10 -10 17 0
110 -104 110 -122 0 -4 6 -8 14 -8 8 0 16 -7 20 -15 3 -10 -1 -15 -13 -15 -11
0 -21 -5 -23 -11 -2 -6 -20 -11 -41 -11 -20 0 -37 -4 -37 -9 0 -5 -11 -7 -25
-3 -14 3 -25 2 -25 -3 0 -12 -67 -33 -104 -33 -14 0 -26 -4 -26 -10 0 -5 -16
-12 -36 -16 -19 -4 -38 -13 -41 -20 -3 -8 -16 -14 -29 -14 -13 0 -24 -4 -24
-9 0 -5 -9 -7 -20 -4 -14 4 -20 0 -20 -11 0 -10 -11 -19 -30 -23 -16 -3 -30
-9 -30 -14 0 -5 -7 -9 -15 -9 -8 0 -15 -4 -15 -10 0 -5 -4 -10 -9 -10 -6 0
-27 -16 -48 -35 -21 -19 -46 -35 -55 -35 -10 0 -18 -4 -18 -10 0 -5 -7 -10
-15 -10 -8 0 -15 -4 -15 -9 0 -13 -87 -101 -100 -101 -5 0 -10 -4 -10 -10 0
-5 -32 -42 -70 -81 -39 -39 -77 -83 -84 -98 -8 -14 -24 -33 -35 -41 -12 -8
-21 -22 -21 -32 0 -10 -4 -18 -10 -18 -5 0 -10 -7 -10 -15 0 -8 -4 -15 -9 -15
-5 0 -14 -13 -21 -30 -7 -16 -16 -30 -20 -30 -4 0 -11 -16 -14 -35 -4 -19 -11
-35 -16 -35 -6 0 -10 -9 -10 -20 0 -11 -4 -20 -10 -20 -5 0 -10 -9 -10 -20 0
-11 -4 -20 -10 -20 -5 0 -10 -11 -10 -25 0 -14 -4 -25 -10 -25 -5 0 -10 -13
-10 -30 0 -16 -4 -30 -9 -30 -7 0 -21 -58 -38 -160 -3 -19 -9 -39 -13 -45 -5
-5 -11 -71 -14 -145 -4 -74 -9 -161 -12 -194 l-6 -59 36 7 c23 4 36 3 36 -4 0
-6 23 -10 55 -10 30 0 72 -7 94 -16 21 -8 45 -14 52 -13 19 4 109 -24 109 -33
0 -4 7 -8 15 -8 12 0 15 -13 15 -61 0 -58 -1 -60 -22 -53 -13 3 -24 11 -26 15
-2 5 -12 9 -23 9 -10 0 -19 4 -19 8 0 5 -21 10 -47 11 -26 1 -49 5 -53 10 -5
8 -63 20 -125 27 -17 1 -42 7 -57 13 -14 5 -35 7 -47 4 l-21 -5 -1 348 c0 192
-2 360 -5 373 -16 86 -87 176 -172 218 l-57 28 -405 0 c-404 0 -405 0 -450
-23 -87 -45 -148 -116 -171 -202 -8 -33 -12 -205 -12 -635 0 -561 -1 -591 -19
-606 -10 -9 -18 -19 -18 -22 0 -3 -12 -18 -27 -34 -33 -34 -49 -55 -83 -106
-14 -20 -28 -37 -32 -37 -5 0 -8 -5 -8 -11 0 -6 -7 -17 -15 -25 -8 -9 -15 -24
-15 -35 0 -10 -4 -19 -10 -19 -5 0 -10 -7 -10 -15 0 -8 -4 -15 -9 -15 -5 0
-15 -16 -22 -35 -7 -19 -17 -35 -21 -35 -4 0 -8 -11 -8 -25 0 -14 -4 -25 -10
-25 -5 0 -10 -11 -10 -24 0 -14 -5 -28 -11 -31 -6 -4 -8 -13 -5 -21 3 -7 1
-16 -3 -19 -5 -2 -12 -17 -15 -32 -19 -76 -28 -122 -33 -163 -3 -25 -9 -50
-14 -56 -13 -16 -12 -508 1 -512 5 -2 10 -24 10 -48 0 -24 5 -44 10 -44 6 0
10 -18 10 -40 0 -21 4 -49 9 -62 21 -51 24 -64 22 -85 -1 -13 2 -23 8 -23 6 0
11 -11 11 -25 0 -14 5 -25 10 -25 6 0 10 -9 10 -20 0 -11 5 -20 10 -20 6 0 10
-10 10 -21 0 -12 8 -29 18 -38 11 -9 22 -28 26 -44 3 -15 11 -27 16 -27 6 0
10 -7 10 -17 0 -13 -3 -12 -19 5 -10 12 -23 22 -30 22 -6 0 -11 4 -11 9 0 5
-13 12 -29 16 -15 3 -38 15 -49 25 -12 11 -30 20 -42 20 -11 0 -20 6 -20 14 0
8 -10 18 -22 22 -13 4 -25 9 -28 13 -3 3 -32 15 -65 26 -33 10 -63 24 -67 29
-4 6 -25 10 -48 10 -22 -1 -40 2 -40 7 0 5 -13 9 -30 9 -16 0 -30 5 -30 10 0
6 -10 10 -23 10 -13 0 -29 6 -35 12 -10 10 -15 10 -22 -2 -8 -12 -12 -13 -19
-2 -13 20 -491 21 -491 1 0 -5 -20 -9 -45 -9 -25 0 -45 -4 -45 -10 0 -5 -15
-10 -34 -10 -19 0 -37 -4 -40 -9 -3 -5 -15 -7 -26 -4 -11 3 -20 0 -20 -6 0 -5
-7 -8 -15 -5 -8 4 -15 1 -15 -5 0 -6 -5 -11 -12 -11 -23 0 -128 -34 -128 -42
0 -4 -6 -5 -14 -2 -7 3 -20 -2 -29 -10 -9 -9 -23 -16 -31 -16 -9 0 -16 -5 -16
-11 0 -5 -4 -8 -9 -4 -6 3 -24 -8 -41 -25 -17 -16 -41 -30 -53 -30 -12 0 -29
-9 -37 -20 -8 -11 -18 -20 -22 -20 -4 0 -24 -16 -44 -35 -19 -19 -42 -35 -49
-35 -7 0 -38 -25 -70 -55 -31 -30 -61 -55 -66 -55 -5 0 -9 -4 -9 -9 0 -5 -34
-45 -76 -88 -42 -43 -81 -90 -86 -105 -5 -15 -18 -30 -29 -33 -10 -4 -19 -15
-19 -26 0 -10 -4 -19 -10 -19 -5 0 -10 -7 -10 -15 0 -8 -4 -15 -10 -15 -5 0
-10 -7 -10 -15 0 -9 -9 -26 -20 -38 -11 -12 -18 -27 -16 -34 3 -7 1 -13 -4
-13 -6 0 -10 -11 -10 -25 0 -14 -4 -25 -10 -25 -5 0 -10 -9 -10 -20 0 -11 -4
-20 -10 -20 -5 0 -10 -11 -10 -25 0 -14 -4 -25 -10 -25 -5 0 -10 -9 -10 -20 0
-11 -4 -20 -10 -20 -5 0 -10 -13 -10 -30 0 -16 -4 -30 -10 -30 -5 0 -10 -15
-10 -32 -1 -18 -7 -51 -15 -73 -8 -22 -15 -57 -15 -77 0 -21 -4 -38 -9 -38
-24 0 -34 -402 -13 -515 8 -38 17 -92 21 -120 4 -27 13 -63 19 -78 7 -16 12
-42 12 -58 0 -16 5 -29 10 -29 6 0 10 -9 10 -20 0 -11 5 -20 10 -20 6 0 10
-11 10 -25 0 -14 5 -25 10 -25 6 0 10 -11 10 -25 0 -14 5 -25 10 -25 6 0 10
-7 10 -15 0 -8 4 -15 9 -15 5 0 12 -18 16 -40 4 -22 11 -40 16 -40 5 0 9 -9 9
-20 0 -11 5 -20 10 -20 6 0 10 -7 10 -15 0 -8 5 -15 10 -15 6 0 10 -7 10 -15
0 -8 3 -15 8 -15 7 0 25 -30 38 -63 3 -9 10 -17 15 -17 5 0 9 -9 9 -20 0 -17
7 -20 40 -20 35 0 75 14 90 31 8 9 44 22 54 20 5 -1 16 5 25 13 9 8 33 17 54
21 20 4 37 11 37 16 0 5 10 9 23 9 12 0 29 9 37 20 9 12 26 20 45 20 19 0 35
7 43 20 7 12 28 22 52 26 22 4 40 10 40 15 0 5 11 9 25 9 14 0 25 5 25 10 0 6
5 10 11 10 6 0 17 7 25 15 8 8 20 12 27 9 7 -2 23 5 35 16 13 12 38 24 57 27
19 3 35 10 35 14 0 5 9 9 20 9 24 0 70 21 70 32 0 4 8 8 18 8 10 0 28 9 40 20
12 11 26 20 32 20 5 0 10 5 10 11 0 5 4 8 9 4 12 -7 91 17 91 27 0 5 11 8 25
8 15 0 25 6 25 15 0 9 6 12 15 9 8 -4 15 -1 15 5 0 6 7 11 15 11 8 0 15 3 15
8 0 9 45 28 88 37 17 4 32 11 32 16 0 5 11 9 25 9 22 0 43 12 80 47 7 7 15 10
17 8 3 -3 23 4 46 15 22 11 48 20 57 20 8 0 15 5 15 10 0 6 10 10 23 10 13 0
33 9 44 20 12 10 34 22 50 26 15 4 34 13 41 20 7 7 28 16 47 20 19 3 35 10 35
15 0 5 11 9 25 9 14 0 37 11 51 25 13 13 31 22 39 19 7 -3 24 3 36 15 12 11
35 23 50 26 16 4 31 11 34 16 4 5 18 9 32 9 14 0 34 10 44 21 11 12 30 22 46
22 16 0 34 8 41 18 24 34 32 20 32 -56 0 -43 -4 -75 -10 -75 -5 0 -10 -16 -10
-35 0 -19 -4 -35 -10 -35 -5 0 -10 -13 -10 -30 0 -16 -4 -30 -9 -30 -5 0 -11
-18 -15 -41 -7 -42 -44 -132 -58 -137 -4 -2 -8 -12 -8 -23 0 -10 -4 -19 -10
-19 -5 0 -10 -7 -10 -15 0 -8 -4 -15 -9 -15 -5 0 -14 -13 -21 -30 -7 -16 -28
-44 -47 -62 -19 -18 -46 -43 -59 -56 -13 -13 -24 -27 -24 -32 0 -6 -9 -10 -20
-10 -12 0 -32 -11 -46 -25 -14 -14 -31 -25 -39 -25 -8 0 -15 -4 -15 -10 0 -5
-7 -10 -15 -10 -8 0 -15 -4 -15 -10 0 -5 -11 -10 -25 -10 -14 0 -25 -4 -25
-10 0 -5 -7 -10 -15 -10 -8 0 -15 -4 -15 -10 0 -5 -13 -10 -29 -10 -16 0 -31
-5 -33 -10 -2 -6 -27 -13 -56 -17 -28 -3 -52 -9 -52 -13 0 -4 -12 -7 -27 -7
-16 0 -88 -1 -161 -3 -88 -1 -138 2 -145 9 -15 15 -44 14 -50 -1 -4 -10 -6
-10 -6 0 -1 6 -9 12 -18 12 -19 0 -115 31 -123 40 -3 3 -24 12 -47 20 -24 7
-43 17 -43 22 0 4 -15 8 -32 8 -25 0 -39 -8 -58 -32 -14 -17 -31 -36 -38 -42
-8 -6 -32 -31 -55 -55 -23 -24 -48 -49 -55 -55 -7 -6 -24 -21 -37 -33 -13 -13
-33 -23 -45 -23 -11 0 -20 -6 -20 -12 -1 -17 -35 -58 -49 -58 -6 0 -11 -7 -11
-15 0 -16 -19 -42 -62 -85 -23 -23 -28 -36 -28 -79 0 -39 4 -51 15 -51 8 0 15
-4 15 -10 0 -5 8 -10 19 -10 10 0 24 -6 31 -14 6 -8 21 -16 33 -18 14 -2 23
-11 25 -26 3 -18 8 -23 23 -19 10 3 19 2 19 -2 0 -4 19 -15 43 -25 23 -9 50
-21 59 -27 10 -5 25 -9 33 -9 8 0 15 -4 15 -10 0 -5 11 -10 25 -10 14 0 25 -4
25 -10 0 -5 9 -10 20 -10 11 0 20 -4 20 -10 0 -5 9 -10 19 -10 11 0 23 -4 26
-10 3 -5 22 -10 41 -10 19 0 34 -5 34 -11 0 -7 12 -9 34 -5 20 4 37 2 41 -3 7
-12 555 -15 555 -3 0 4 10 8 23 8 65 5 137 18 137 25 0 5 18 9 40 9 22 0 40 5
40 10 0 6 6 10 14 10 8 0 17 6 19 13 4 10 6 10 6 0 1 -19 25 -15 41 6 7 11 31
23 52 26 21 4 38 11 38 16 0 5 11 9 25 9 14 0 25 5 25 10 0 6 8 10 18 10 10 0
24 9 32 20 8 11 23 20 33 20 10 0 29 11 43 25 14 14 28 25 32 25 4 0 21 14 39
30 17 16 38 28 45 25 7 -3 22 8 33 25 11 16 24 30 28 30 4 0 25 19 47 42 22
24 44 47 49 52 65 60 134 135 157 172 10 16 26 36 36 45 10 9 18 21 18 28 0 6
5 11 10 11 6 0 10 8 10 18 0 10 9 24 20 32 11 8 20 22 20 32 0 10 4 18 10 18
5 0 12 16 16 35 3 19 10 35 15 35 5 0 9 9 9 20 0 11 5 20 10 20 6 0 10 9 10
19 0 11 4 23 10 26 5 3 10 15 10 26 0 10 5 19 10 19 6 0 10 14 10 30 0 17 4
30 8 30 8 0 27 89 41 185 3 28 10 55 13 61 4 5 8 37 9 70 1 32 6 64 11 71 10
12 4 292 -7 380 -4 29 -11 53 -16 53 -5 0 -9 20 -9 45 0 25 -7 62 -15 82 -8
19 -15 46 -15 59 0 13 -4 24 -10 24 -5 0 -10 11 -10 25 0 14 -4 25 -9 25 -4 0
-16 25 -26 55 -9 31 -24 62 -32 70 -8 9 -13 20 -11 25 4 12 78 -52 78 -68 0
-7 4 -12 9 -12 14 0 81 -65 81 -79 0 -6 6 -11 14 -11 8 0 18 -9 21 -20 3 -11
10 -20 15 -20 15 0 80 -64 80 -77 0 -7 6 -13 14 -13 8 0 18 -9 21 -20 3 -11
11 -20 16 -20 14 0 39 -26 39 -39 0 -6 6 -11 14 -11 8 0 18 -9 21 -20 3 -11
11 -20 16 -20 13 0 39 -26 39 -38 0 -5 9 -12 20 -15 11 -3 20 -12 20 -21 0 -9
6 -16 14 -16 8 0 18 -9 21 -20 3 -11 11 -20 16 -20 13 0 39 -26 39 -38 0 -5 9
-12 20 -15 11 -3 20 -12 20 -21 0 -9 5 -16 11 -16 14 0 39 -25 39 -39 0 -6 5
-11 11 -11 7 0 40 -29 74 -65 35 -36 67 -65 71 -65 5 0 15 -14 22 -30 8 -17
20 -30 28 -30 8 0 14 -7 14 -15 0 -8 5 -15 12 -15 13 0 88 -77 88 -91 0 -5 4
-9 9 -9 15 0 81 -63 81 -77 0 -7 7 -13 15 -13 8 0 15 -7 15 -15 0 -8 5 -15 11
-15 13 0 89 -78 89 -91 0 -5 5 -9 10 -9 14 0 80 -66 80 -80 0 -5 4 -10 10 -10
13 0 120 -106 120 -119 0 -6 4 -11 10 -11 14 0 80 -63 80 -77 0 -7 6 -13 14
-13 8 0 18 -9 21 -20 3 -11 11 -20 16 -20 12 0 79 -69 79 -81 0 -5 6 -9 13 -9
6 0 30 -21 51 -45 22 -25 43 -45 48 -45 5 0 96 88 203 195 107 107 199 195
205 195 6 0 10 24 10 55 0 42 -4 55 -15 55 -16 0 -85 65 -85 80 0 6 -6 10 -14
10 -8 0 -18 9 -21 20 -3 11 -11 20 -17 20 -12 0 -63 53 -72 75 -3 8 -12 15
-20 15 -8 0 -17 9 -21 19 -3 11 -15 23 -25 26 -10 3 -22 15 -25 26 -4 10 -12
19 -20 19 -8 0 -17 9 -20 20 -3 11 -12 20 -18 20 -14 0 -61 51 -70 75 -4 8
-13 15 -21 15 -8 0 -17 9 -21 19 -3 11 -15 23 -25 26 -10 3 -22 15 -25 26 -4
10 -13 19 -21 19 -8 0 -18 8 -21 18 -8 20 -61 72 -74 72 -5 0 -9 7 -9 15 0 9
-8 19 -17 22 -10 4 -27 17 -38 30 -11 13 -26 23 -33 23 -6 0 -9 7 -6 15 4 8 2
15 -3 15 -13 0 -63 43 -63 54 0 13 -41 46 -56 46 -7 0 -11 6 -8 14 3 8 -2 17
-13 20 -10 3 -25 16 -33 27 -19 28 -51 59 -84 83 -14 10 -26 25 -26 32 0 8 -6
14 -14 14 -8 0 -16 7 -20 15 -3 8 -12 15 -20 15 -10 0 -13 6 -10 15 4 8 1 15
-4 15 -13 0 -62 47 -62 60 0 5 -8 11 -17 13 -18 5 29 11 55 8 6 -1 12 3 12 9
0 5 9 10 20 10 11 0 20 3 20 8 0 4 14 8 32 8 18 1 34 6 36 13 2 6 14 8 28 5
14 -4 24 -2 24 5 0 6 34 20 75 32 41 12 75 26 75 31 0 4 7 8 15 8 8 0 15 5 15
10 0 6 8 10 18 10 27 0 79 28 86 45 3 8 12 12 21 9 9 -4 23 2 34 15 10 11 26
21 36 21 17 0 75 54 75 70 0 5 14 11 30 15 17 4 30 13 30 21 0 8 8 18 17 21
16 6 133 118 133 128 0 2 15 20 33 39 17 18 39 44 47 56 8 12 23 31 33 42 9
12 17 26 17 32 0 7 9 18 20 26 11 8 20 22 20 32 0 10 5 18 10 18 6 0 10 7 10
15 0 8 5 15 10 15 6 0 10 9 10 20 0 11 5 20 10 20 6 0 10 8 10 18 0 10 7 27
15 38 8 10 15 27 15 37 0 9 5 17 10 17 6 0 10 11 10 25 0 14 5 25 10 25 6 0
10 9 10 19 0 11 5 23 10 26 6 3 10 19 10 36 0 16 4 29 9 29 7 0 23 76 25 120
0 8 4 18 8 21 4 3 9 31 9 62 1 32 6 60 10 63 5 3 9 70 9 150 l0 144 -45 0
c-25 0 -45 5 -45 10 0 14 -37 12 -43 -2 -4 -10 -6 -10 -6 0 -1 6 -12 12 -26
12 -14 0 -25 4 -25 9 0 5 -26 11 -57 14 -57 4 -175 43 -220 72 -12 8 -29 15
-38 15 -8 0 -15 5 -15 10 0 6 -8 10 -18 10 -10 0 -22 4 -28 9 -5 6 -28 13 -51
17 l-43 7 0 -42 c0 -23 5 -52 11 -63 7 -12 11 -83 10 -182 0 -169 -1 -182 -15
-205 -5 -8 -9 -27 -8 -42 0 -16 -4 -29 -9 -29 -5 0 -9 -13 -9 -30 0 -16 -4
-30 -10 -30 -5 0 -10 -8 -10 -18 0 -10 -4 -22 -8 -28 -5 -5 -17 -30 -26 -56
-10 -27 -22 -48 -27 -48 -5 0 -9 -6 -9 -14 0 -8 -8 -21 -18 -28 -11 -7 -24
-24 -31 -36 -7 -13 -26 -36 -43 -50 -16 -15 -37 -35 -46 -46 -10 -10 -23 -24
-30 -30 -7 -6 -24 -21 -37 -33 -13 -13 -33 -23 -43 -23 -11 0 -28 -11 -38 -25
-10 -14 -27 -25 -36 -25 -10 0 -18 -4 -18 -8 0 -11 -56 -43 -63 -35 -4 3 -22
-2 -41 -11 -19 -9 -48 -16 -65 -16 -17 0 -31 -4 -31 -10 0 -5 -18 -10 -39 -10
-22 0 -42 -6 -45 -12 -5 -10 -7 -10 -12 0 -7 15 -31 16 -36 2 -4 -14 -211 -15
-216 0 -5 14 -39 13 -46 -2 -5 -10 -7 -10 -12 0 -3 6 -17 12 -30 12 -13 0 -24
4 -24 8 0 4 -32 16 -70 27 -39 11 -70 23 -70 27 0 4 -7 8 -15 8 -8 0 -15 5
-15 10 0 6 -11 10 -25 10 -14 0 -25 5 -25 10 0 6 -9 10 -19 10 -11 0 -23 9
-26 20 -3 11 -11 20 -17 20 -22 0 -78 33 -78 46 0 8 -8 18 -17 21 -22 8 -68
55 -76 77 -4 9 -13 16 -22 16 -8 0 -15 5 -15 12 0 6 -11 26 -25 44 -14 18 -25
37 -25 43 0 6 -4 11 -10 11 -5 0 -10 9 -10 20 0 11 -4 20 -10 20 -5 0 -10 9
-10 20 0 11 -4 20 -10 20 -5 0 -10 7 -10 15 0 8 -4 15 -10 15 -5 0 -10 8 -10
19 0 10 -7 35 -15 54 -8 20 -15 52 -15 72 0 19 -4 35 -10 35 -6 0 -10 26 -10
59 0 33 -4 62 -9 65 -12 8 -12 86 0 86 5 0 9 32 9 70 0 39 4 70 9 70 4 0 11
24 14 52 4 29 11 54 17 56 5 2 10 11 10 21 0 22 23 71 33 71 4 0 7 7 7 15 0 8
5 15 10 15 6 0 10 11 10 25 0 14 4 25 8 25 5 0 18 17 30 37 11 21 34 53 51 71
l30 32 274 0 c213 0 284 3 324 15 99 29 180 111 209 212 8 29 20 53 25 53 5 0
9 -4 9 -10 0 -5 9 -10 20 -10 11 0 20 5 20 10 0 6 7 10 15 10 8 0 15 -4 15
-10 0 -5 9 -10 20 -10 11 0 20 -4 20 -10 0 -5 10 -10 23 -10 12 0 46 -11 75
-25 30 -14 60 -25 68 -25 8 0 14 -4 14 -10 0 -5 5 -10 10 -10 6 0 22 -11 35
-24 13 -13 37 -30 54 -37 28 -13 31 -18 31 -61 l0 -48 50 0 c28 0 50 -4 50
-10 0 -5 9 -10 19 -10 11 0 47 -27 81 -60 34 -33 68 -60 76 -60 8 0 14 -4 14
-10 0 -5 7 -10 15 -10 8 0 15 -4 15 -10 0 -5 8 -10 19 -10 10 0 21 -9 24 -20
3 -11 13 -20 24 -20 10 0 31 -7 47 -15 15 -8 37 -15 47 -15 11 0 19 -4 19 -8
0 -5 18 -15 40 -22 22 -7 40 -17 40 -22 0 -4 11 -8 25 -8 14 0 25 -4 25 -8 0
-10 119 -37 127 -28 3 3 12 1 20 -5 7 -7 33 -12 58 -13 25 -1 48 -5 51 -9 4
-4 28 -7 54 -7 25 0 51 -5 57 -11 8 -8 17 -8 29 -1 12 7 24 6 37 -2 15 -8 21
-8 24 2 6 14 33 16 33 2 0 -14 37 -12 44 3 5 9 7 9 12 0 6 -14 44 -18 44 -4 0
4 12 8 28 8 73 1 122 6 122 14 0 5 9 4 20 -3 14 -9 23 -10 28 -2 9 13 128 47
165 46 15 0 27 4 27 9 0 6 9 7 20 4 13 -4 22 -1 26 9 4 10 18 16 35 16 16 0
29 5 29 10 0 6 7 10 15 10 8 0 15 6 15 13 0 8 3 7 10 -3 8 -12 13 -11 33 8 13
12 35 22 49 22 15 0 33 7 42 15 8 8 22 15 30 15 9 0 16 4 16 9 0 5 14 12 31
16 20 5 29 11 25 21 -3 8 -1 14 5 14 6 0 17 6 24 13 36 31 46 37 65 37 11 0
20 4 20 9 0 6 17 26 38 45 l37 36 138 0 137 0 0 164 c0 130 3 168 15 179 7 8
17 26 21 41 3 14 10 26 15 26 5 0 9 9 9 20 0 11 5 20 10 20 6 0 10 7 10 15 0
8 5 15 10 15 6 0 10 9 10 20 0 11 5 20 10 20 6 0 10 11 10 25 0 14 4 25 8 25
4 0 15 28 25 63 9 34 22 76 27 93 6 17 10 40 10 52 0 12 5 22 10 22 6 0 10 20
10 45 0 25 5 45 10 45 6 0 10 57 10 150 0 97 4 157 12 169 23 37 5 48 -89 55
-48 4 -103 8 -120 8 l-33 1 0 66 c0 36 4 61 8 55 4 -6 28 -12 54 -12 27 -1 58
-7 70 -14 28 -15 535 -18 546 -3 4 6 34 12 67 14 33 2 62 7 63 12 12 31 19 -5
18 -94 0 -141 15 -189 78 -253 28 -27 77 -63 109 -78 49 -23 222 -77 422 -131
135 -37 233 -67 265 -83 57 -28 61 -45 58 -249 l-3 -183 -33 -32 -32 -33 -265
0 -265 0 -32 33 -33 32 -3 124 -4 124 -134 1 c-98 0 -134 -3 -135 -12 -3 -67
1 -279 5 -305 18 -95 97 -188 192 -227 l59 -25 365 3 365 2 50 27 c62 34 72
43 114 96 57 72 62 108 62 386 0 258 -5 293 -44 351 -56 80 -144 128 -337 180
-74 20 -162 45 -195 55 -33 10 -105 30 -160 45 -184 50 -195 62 -195 222 0
116 8 145 38 135 8 -2 20 5 28 16 12 18 89 62 108 62 4 0 21 14 36 30 15 17
34 30 42 30 8 0 19 5 25 11 7 7 62 9 158 7 l147 -3 34 -37 34 -38 0 -125 0
-126 137 3 137 3 1 130 c0 156 -7 213 -35 271 -50 103 -148 164 -277 172 -95
6 -101 14 -48 59 19 17 35 35 35 42 0 6 4 11 8 11 5 0 16 18 26 40 10 22 22
40 27 40 5 0 9 9 9 20 0 11 5 20 10 20 6 0 10 7 10 15 0 8 5 15 10 15 6 0 10
9 10 20 0 11 5 20 10 20 6 0 10 7 10 15 0 8 4 15 9 15 6 0 13 20 17 45 3 25
10 45 15 45 5 0 9 11 9 25 0 14 4 25 9 25 8 0 15 22 28 98 3 17 9 32 14 32 5
0 9 18 9 40 0 22 4 40 8 40 9 0 23 158 24 271 0 121 -14 344 -23 347 -5 2 -9
17 -9 32 0 16 -4 32 -10 35 -5 3 -10 22 -10 40 0 19 -9 50 -19 69 -11 19 -25
53 -31 75 -6 22 -17 47 -25 55 -8 8 -15 28 -15 45 0 17 -3 31 -7 31 -5 0 -21
25 -38 55 -16 30 -32 55 -35 55 -3 0 -11 14 -19 31 -8 17 -27 44 -42 59 -16
15 -29 33 -29 39 0 7 -26 39 -57 71 -75 77 -103 108 -103 115 0 2 -27 33 -60
66 -33 34 -62 70 -66 81 -3 10 -12 18 -20 18 -8 0 -14 5 -14 10 0 6 -7 10 -15
10 -8 0 -15 4 -15 8 0 4 -16 25 -35 46 -19 21 -35 42 -35 47 0 5 -6 9 -14 9
-14 0 -76 67 -76 82 0 4 -7 8 -15 8 -8 0 -15 5 -15 10 0 6 -4 10 -10 10 -5 0
-19 9 -30 20 -11 11 -20 25 -20 30 0 6 -5 10 -10 10 -6 0 -26 16 -44 35 -19
19 -38 35 -43 35 -11 0 -73 68 -73 80 0 6 -6 10 -14 10 -16 0 -76 56 -76 71 0
5 -11 14 -25 19 -14 5 -25 14 -25 20 0 12 -37 50 -49 50 -5 0 -14 14 -21 30
-7 17 -17 30 -23 30 -12 0 -117 107 -117 120 0 6 -5 10 -11 10 -15 0 -79 62
-79 77 0 7 -7 13 -15 13 -9 0 -18 7 -21 15 -3 8 -14 17 -25 20 -10 4 -22 17
-25 30 -3 13 -14 25 -25 28 -10 3 -19 12 -19 21 0 9 -5 16 -10 16 -15 0 -80
64 -80 79 0 6 -4 11 -10 11 -14 0 -80 63 -80 76 0 7 -9 14 -20 17 -11 3 -20
12 -20 21 0 9 -4 16 -10 16 -13 0 -80 66 -80 79 0 6 -6 11 -14 11 -8 0 -18 9
-21 20 -3 11 -15 20 -25 20 -13 0 -22 9 -26 25 -3 14 -11 25 -16 25 -13 0
-118 107 -118 120 0 6 -4 10 -10 10 -14 0 -80 63 -80 76 0 7 -11 15 -25 18
-14 4 -25 11 -25 16 0 11 -96 110 -106 110 -9 0 -44 41 -44 52 0 4 -5 8 -10 8
-6 0 -21 11 -34 25 -29 31 -73 32 -103 2z m1018 -2257 c10 0 19 4 19 8 0 10
70 10 85 1 6 -4 30 -7 55 -6 24 0 46 -5 48 -12 5 -15 42 -14 43 2 0 10 2 10 6
0 2 -7 18 -13 34 -13 16 0 29 -3 29 -7 0 -5 29 -17 65 -28 36 -10 65 -23 65
-27 0 -4 11 -8 25 -8 14 0 25 -4 25 -10 0 -5 7 -10 15 -10 8 0 30 -14 47 -31
18 -17 45 -33 60 -36 19 -4 28 -12 28 -24 0 -11 5 -19 12 -19 6 0 31 -20 55
-45 23 -25 47 -45 53 -45 5 0 10 -7 10 -16 0 -8 16 -36 35 -61 19 -25 35 -52
35 -59 0 -8 5 -14 10 -14 6 0 10 -8 10 -17 0 -10 9 -29 19 -42 10 -13 16 -32
14 -41 -3 -10 0 -21 6 -24 6 -4 11 -18 11 -32 0 -13 5 -24 10 -24 6 0 10 -13
10 -30 0 -16 5 -30 10 -30 6 0 10 -68 10 -185 0 -117 -4 -185 -10 -185 -5 0
-10 -18 -10 -40 0 -22 -4 -40 -10 -40 -5 0 -10 -10 -10 -22 0 -28 -50 -148
-62 -148 -4 0 -8 -9 -8 -20 0 -11 -4 -20 -10 -20 -5 0 -10 -7 -10 -15 0 -8 -4
-15 -8 -15 -5 0 -17 -17 -26 -37 -9 -21 -31 -49 -47 -63 -36 -30 -68 -61 -90
-86 -28 -32 -59 -54 -77 -54 -10 0 -24 -9 -31 -19 -8 -11 -21 -17 -29 -13 -11
4 -14 1 -10 -10 5 -11 -4 -19 -35 -28 -23 -7 -45 -17 -48 -22 -3 -5 -25 -12
-48 -15 -22 -3 -41 -10 -41 -14 0 -5 -9 -9 -20 -9 -11 0 -20 -4 -20 -10 0 -5
-18 -10 -40 -10 -25 0 -40 -5 -41 -12 0 -10 -2 -10 -6 0 -5 14 -33 17 -33 3 0
-5 -15 -9 -32 -9 -18 0 -80 0 -138 -1 -60 0 -106 4 -108 9 -2 6 -12 10 -23 10
-10 0 -19 5 -19 10 0 6 -25 10 -55 10 -30 0 -55 5 -55 10 0 6 -10 10 -22 10
-13 0 -36 7 -52 15 -15 8 -35 15 -42 15 -8 0 -14 5 -14 10 0 6 -6 10 -14 10
-8 0 -18 9 -21 20 -3 11 -13 20 -21 20 -8 0 -14 5 -14 10 0 6 -9 10 -20 10
-11 0 -20 4 -20 10 0 5 -13 16 -29 25 -16 8 -32 23 -35 32 -3 10 -19 27 -36
38 -16 11 -30 25 -30 31 0 6 -11 20 -25 30 -14 10 -25 25 -25 32 0 8 -13 27
-30 42 -16 15 -30 33 -30 39 0 6 -4 11 -9 11 -5 0 -12 15 -15 34 -4 19 -13 36
-20 39 -9 4 -12 14 -9 26 3 12 1 21 -6 21 -6 0 -11 14 -11 30 0 17 -4 30 -10
30 -5 0 -10 13 -10 29 0 16 -5 31 -10 33 -14 4 -14 392 0 396 5 2 10 17 10 33
0 16 5 29 10 29 6 0 10 7 10 16 0 24 33 117 47 132 6 6 15 21 18 32 3 11 11
20 16 20 5 0 9 7 9 15 0 8 4 15 9 15 5 0 13 10 17 23 7 23 21 41 63 80 79 74
101 97 101 106 0 6 6 11 13 11 7 0 19 9 27 20 8 11 24 20 35 20 11 0 27 9 34
19 8 11 19 17 25 15 6 -2 20 7 30 21 11 14 29 25 42 25 13 0 24 4 24 10 0 5 7
7 15 4 8 -4 15 -1 15 5 0 6 14 11 30 11 17 0 30 5 30 10 0 6 16 10 35 10 19 0
35 5 35 10 0 6 23 10 50 10 33 0 50 4 51 13 0 10 2 10 6 0 2 -7 13 -13 24 -13z
m-3604 -2145 c67 -28 68 -34 69 -387 l1 -318 -56 0 c-31 0 -74 -5 -96 -10 -22
-5 -62 -12 -90 -15 -27 -4 -51 -11 -53 -16 -2 -5 -19 -9 -39 -9 -19 0 -41 -6
-49 -14 -7 -8 -23 -12 -34 -9 -11 3 -20 0 -20 -6 0 -6 -7 -11 -16 -11 -8 0
-22 -7 -30 -15 -9 -8 -24 -15 -34 -15 -10 0 -22 -4 -25 -10 -3 -5 -17 -10 -31
-10 -13 0 -24 -4 -24 -10 0 -5 -5 -10 -10 -10 -6 0 -22 -11 -36 -25 -14 -14
-30 -23 -35 -20 -5 4 -17 -2 -27 -11 -16 -17 -17 4 -20 410 -2 467 -3 463 55
502 31 21 42 21 301 22 199 0 276 -4 299 -13z m1184 -470 c63 -110 115 -202
117 -205 1 -4 90 -159 196 -346 107 -186 192 -341 189 -344 -2 -2 -8 2 -13 9
-4 8 -15 11 -24 8 -8 -3 -18 -2 -21 3 -4 6 -17 7 -31 4 -18 -5 -30 -1 -43 15
-10 11 -23 21 -30 21 -6 0 -11 5 -11 10 0 6 -11 10 -24 10 -14 0 -31 7 -40 15
-8 8 -22 15 -30 15 -9 0 -16 5 -16 10 0 6 -6 10 -14 10 -8 0 -18 9 -21 20 -3
11 -11 20 -17 20 -5 0 -19 11 -30 25 -11 14 -25 25 -32 25 -14 0 -44 27 -66
59 -8 11 -19 21 -25 21 -7 0 -25 16 -41 35 -16 19 -33 35 -39 35 -5 0 -24 12
-41 28 l-30 27 2 325 c2 377 1 367 12 355 5 -6 60 -100 123 -210z m-1186 -910
c-16 -8 -48 -14 -70 -13 l-40 1 38 4 c20 2 37 8 37 14 0 5 15 9 33 8 l32 -1
-30 -13z m-1075 -1746 c0 -6 6 -16 13 -23 6 -8 19 -24 27 -36 8 -13 23 -30 33
-39 9 -8 17 -18 17 -22 0 -3 25 -32 55 -65 30 -32 55 -62 55 -66 0 -5 7 -8 15
-8 8 0 15 -4 15 -10 0 -5 11 -20 25 -34 28 -28 32 -46 10 -46 -8 0 -15 -4 -15
-10 0 -5 -7 -10 -15 -10 -8 0 -15 -5 -15 -11 0 -5 -4 -8 -9 -4 -10 6 -104 -35
-109 -47 -2 -5 -17 -8 -33 -8 -16 0 -29 -4 -29 -9 0 -5 -14 -13 -32 -16 -17
-4 -38 -14 -46 -21 -7 -8 -22 -14 -33 -14 -10 0 -19 -4 -19 -10 0 -5 -7 -7
-15 -4 -8 4 -15 2 -15 -4 0 -6 -17 -16 -37 -23 -21 -6 -41 -16 -45 -22 -3 -6
-20 -10 -37 -9 -20 0 -31 -4 -31 -13 0 -13 -55 -39 -77 -36 -7 1 -13 -2 -13
-7 0 -5 -18 -14 -40 -21 -22 -6 -40 -16 -40 -21 0 -6 -14 -10 -31 -10 -18 0
-38 -8 -48 -19 -9 -10 -31 -22 -49 -25 -17 -4 -32 -11 -32 -15 0 -4 -19 -13
-42 -20 -22 -7 -47 -19 -55 -26 -7 -8 -20 -12 -29 -8 -8 3 -23 -4 -33 -16 -10
-11 -23 -21 -30 -21 -6 0 -11 -5 -11 -11 0 -5 -4 -8 -10 -4 -5 3 -25 -3 -45
-14 -20 -10 -45 -17 -55 -14 -14 4 -20 0 -20 -11 0 -10 -9 -16 -25 -16 -14 0
-37 -11 -51 -25 -14 -14 -36 -25 -49 -25 -13 0 -30 -7 -38 -15 -8 -7 -27 -17
-43 -21 -16 -4 -35 -13 -42 -20 -7 -7 -19 -11 -27 -8 -8 4 -15 1 -15 -5 0 -6
-7 -11 -15 -11 -8 0 -15 -4 -15 -9 0 -4 -20 -14 -45 -21 -25 -7 -45 -17 -45
-21 0 -5 -7 -9 -15 -9 -8 0 -15 -4 -15 -9 0 -5 -8 -7 -19 -4 -10 3 -22 0 -25
-6 -4 -6 -16 -11 -27 -11 -10 0 -19 -4 -19 -10 0 -5 -7 -10 -15 -10 -8 0 -15
-4 -15 -10 0 -5 -7 -10 -15 -10 -8 0 -15 -4 -15 -10 0 -5 -13 -10 -30 -10 -16
0 -30 -4 -30 -10 0 -5 -7 -10 -15 -10 -8 0 -15 -5 -15 -11 0 -5 -5 -7 -11 -4
-13 9 -69 -14 -89 -35 -8 -10 -33 -23 -55 -31 -22 -7 -44 -17 -49 -21 -6 -4
-13 -8 -17 -8 -11 0 -9 189 2 196 5 3 9 25 9 49 0 24 5 47 10 50 6 3 10 22 10
41 0 19 5 34 10 34 6 0 10 11 10 25 0 14 4 25 9 25 5 0 12 17 16 38 3 21 15
45 26 52 10 8 19 20 19 27 0 7 4 13 9 13 5 0 12 8 16 19 3 10 13 28 23 39 45
53 52 63 52 69 0 11 55 59 91 79 18 10 46 31 60 47 15 15 32 27 38 27 6 0 11
4 11 10 0 5 16 12 35 16 19 3 38 10 41 15 3 5 13 9 24 9 10 0 20 6 23 14 4 9
14 12 26 9 12 -3 21 -1 21 6 0 6 9 11 19 11 11 0 21 5 23 11 2 6 17 11 33 11
17 0 34 3 39 6 5 2 40 6 79 8 44 2 73 8 78 16 6 8 9 9 9 2 0 -16 50 -24 92
-15 26 6 45 4 74 -9 23 -11 51 -16 70 -13 18 3 34 0 38 -6 4 -6 16 -11 27 -11
10 0 19 -4 19 -10 0 -5 9 -10 20 -10 11 0 20 -4 20 -10 0 -5 10 -10 23 -10 12
0 35 -7 51 -15 52 -27 72 -20 146 55 38 39 74 70 79 70 6 0 11 4 11 9 0 13 85
101 98 101 7 0 12 4 12 10 0 8 34 44 100 106 40 38 60 66 60 84 0 11 5 20 10
20 6 0 10 -5 10 -11z"/>
<path d="M9840 8282 c0 -17 -66 -77 -82 -74 -9 2 -28 -8 -42 -22 -14 -15 -30
-26 -37 -26 -6 0 -19 -8 -28 -17 -9 -10 -20 -18 -26 -19 -17 -1 -83 -33 -90
-44 -3 -5 -22 -10 -41 -10 -19 0 -34 -4 -34 -9 0 -9 -41 -18 -119 -26 -24 -2
-47 -8 -50 -13 -10 -16 -188 -12 -219 4 -16 8 -40 11 -59 8 -21 -4 -33 -2 -33
5 0 6 -13 11 -30 11 -28 0 -30 -2 -30 -38 0 -21 6 -46 13 -57 7 -11 19 -39 27
-62 7 -24 17 -43 22 -43 4 0 8 -13 8 -30 0 -16 5 -30 10 -30 6 0 10 -9 10 -20
0 -11 5 -20 10 -20 6 0 10 -13 10 -30 0 -16 4 -39 9 -52 21 -51 24 -64 22 -85
-1 -11 3 -24 8 -28 6 -3 11 -35 11 -70 l0 -63 43 -21 c37 -18 57 -21 128 -17
185 10 254 18 261 29 6 9 8 9 8 0 0 -7 7 -13 15 -13 8 0 15 5 15 10 0 6 9 10
20 10 11 0 20 5 20 10 0 6 18 10 40 10 22 0 40 5 40 10 0 6 7 10 15 10 8 0 15
4 15 9 0 5 9 7 20 4 12 -3 22 1 26 10 3 8 24 18 50 22 24 3 44 10 44 16 0 5
10 9 23 9 12 0 29 9 37 20 8 11 20 20 26 20 6 0 19 11 29 24 10 14 25 22 35
19 11 -3 38 17 78 56 34 34 69 61 77 61 8 0 15 4 15 8 0 4 25 33 55 62 67 67
73 104 25 147 -16 14 -30 32 -30 39 0 8 -11 16 -25 20 -14 3 -25 10 -25 14 0
12 -105 116 -124 123 -9 4 -16 11 -16 17 0 13 -57 70 -70 70 -6 0 -10 4 -10 8
0 22 -39 52 -69 52 -17 0 -31 -4 -31 -8z"/>
<path d="M1400 5285 l0 -955 135 0 135 0 1 58 c0 31 1 222 1 425 l1 367 393 0
394 0 1 48 c2 86 -2 196 -6 200 -2 3 -179 5 -393 4 l-389 0 0 278 -1 278 402
0 c220 0 416 1 434 1 l32 1 0 125 0 125 -570 0 -570 0 0 -955z"/>
</g>
</svg>
